<svg xmlns="http://www.w3.org/2000/svg" viewBox="0 0 11 74.6">
<path d="M5.75,68.75c-1.57.38-3.37-.12-4-3.31,0-.24.42-1.08.41-1.66C2.11,57.07,2,52.36,1.94,49.67c-.11-4.53-.35-7-.37-11.57,0-4.08.35-2.12.35-6.2,0-2.76-.34-3.5-.38-6.25-.07-4.82.08-5.62,0-10.44,0-2.3-.09-4.62-.34-6.91A10.4,10.4,0,0,1,3.06.45C3.72-.4,6.72.16,7.44.76c1.21,1,.62,2.78.28,4.05a34.73,34.73,0,0,0-1.13,9c0,6.45.36,6.86.52,13.32.09,3.22-.13,6.46-.05,9.68.13,4.85.36,3.65.52,8.5.11,3.53-.06,3,.1,6.57A35.17,35.17,0,0,0,8.16,56c0,.28.11,2.38.08,2.68a35.26,35.26,0,0,0,0,3.56C8.28,62.74,9.93,68.87,5.75,68.75Z" transform="translate(0 -0.01)" fill="#020202"/><path d="M5.92,74.61c1.47-.07,5.66-9.11,5-9.7S.79,64.59,0,65.42C-.43,65.93,4.61,74.67,5.92,74.61Z" transform="translate(0 -0.01)" fill="#010101"/>
</svg>