<svg xmlns="http://www.w3.org/2000/svg" viewBox="0 0 120.32 67.45">
<path d="M117.09,61c3.2.29,4.36.83,1.93,1.43a129.59,129.59,0,0,1-18.8,2.14c-10.29.46-21,.22-31.6.55-14.68.46-29.49,1.2-44.25,1.78L10,67.44a24.51,24.51,0,0,1-3.81,0,7.93,7.93,0,0,1-2.09-.56,5.85,5.85,0,0,1-1.89-1.35A7.6,7.6,0,0,1,.45,61.6a23.69,23.69,0,0,1-.31-3.75C-.08,49.29,0,40.7.13,32.14c.08-3.86.15-7.84.23-11.67S.36,13,.59,9.22C1.22-.95,3.39-2.51,3.76,3.74c.28,4.78-.3,15.71-.43,21.9C3.12,34.48,3,43.3,3.06,52.17l0,4c0,1.33,0,2.69.11,3.87a6.83,6.83,0,0,0,.85,3.06,3.07,3.07,0,0,0,2.25,1.35,19,19,0,0,0,3.67.07l4-.13,8-.25,32-1c9-.32,18-.8,27-1.2l25.64-1A87,87,0,0,1,117.09,61Z" transform="translate(0 -0.04)" fill="#020202"/>
</svg>