<svg xmlns="http://www.w3.org/2000/svg" viewBox="0 0 80 43.26"><
  path d="M70.8,40.08q-5.44.11-10.89.24C58.05,27.85,42.66,15.59,30.78,23.49c-5,3.33-11,11-9.91,17.6l-4.9,0c-.15-1.29-3.85-1.36-3.6.57.14,2.22,3.7,1.2,5.25,1.56,12.85,0,25.69-.68,38.54-.47,4.85,0,9.77.11,14.59-.39C71.63,42.12,72,40,70.8,40.08Zm-47.51,1c.05-1,0-2.25.09-3.69.83-10.65,14.51-17.46,23.84-11.27A25.12,25.12,0,0,1,56.39,35a37.67,37.67,0,0,1,2,5.33C46.71,40.63,35,40.94,23.29,41.07Z" fill="#010101"/><path d="M66,34a6.73,6.73,0,0,1-.9-.13l0,0c.72-2.38,4.36-2.6,6.41-3.62,2.78-.6,5.65-3,8.49-2.06-1.23,2.15-3.94,2.32-6,3.19C71.3,32.1,68.76,33.61,66,34Z" fill="#010101"/><path d="M54.83,23.22h0c-.76-2.7,5.85-6.9,7.71-8.86,1.11-1.1,5.48-5.06,3.38-1.08-2.65,3.06-6.27,5.18-9,8.18a.6.6,0,0,1,.08-.08,6.05,6.05,0,0,1-2.11,1.69C54.85,23.11,54.86,23.19,54.83,23.22Z" fill="#010101"/><path d="M36.71,15.79c-.1,0-.05-.21,0-.29-.18-2.83-.19-13.88,1.64-15.5.76,2.89-.31,6-.27,8.92C37.65,10.9,38.46,14.58,36.71,15.79Z" fill="#010101"/><path d="M23,20.09c-1.85-1.15-2.72-3.42-4.32-4.88-1.38-1.84-3.58-3.1-4.32-5.36.95-2.42,9.57,8.31,9.31,10.23h0C23.74,20.28,23.19,20.15,23,20.09Z" fill="#010101"/><path d="M15.15,32.74C10.67,31.4,6,30.83,1.47,29.81c-4.76-2.84,3.45-1.59,5.07-1,3.49,1.1,8.3.64,10.72,3.69h0A4,4,0,0,1,15.15,32.74Z" fill="#010101"/>
</svg>